<?xml version="1.0" encoding="iso-8859-1"?>
<!-- Generator: Adobe Illustrator 19.0.0, SVG Export Plug-In . SVG Version: 6.00 Build 0)  -->
<svg version="1.1" id="Capa_1" xmlns="http://www.w3.org/2000/svg" xmlns:xlink="http://www.w3.org/1999/xlink" x="0px" y="0px"
	 viewBox="0 0 512 512" style="enable-background:new 0 0 512 512;" xml:space="preserve">
<linearGradient id="SVGID_1_" gradientUnits="userSpaceOnUse" x1="127.9971" y1="258" x2="384.0028" y2="258" gradientTransform="matrix(1 0 0 -1 0 514)">
	<stop  offset="0" style="stop-color:#00F2FE"/>
	<stop  offset="0.021" style="stop-color:#03EFFE"/>
	<stop  offset="0.293" style="stop-color:#24D2FE"/>
	<stop  offset="0.554" style="stop-color:#3CBDFE"/>
	<stop  offset="0.796" style="stop-color:#4AB0FE"/>
	<stop  offset="1" style="stop-color:#4FACFE"/>
</linearGradient>
<path style="fill:url(#SVGID_1_);" d="M382.593,393.363c-6.785,17.137-18.296,31.592-33.288,41.802
	C334.094,445.524,316.006,451,296.997,451h-18v41c0,11.046-8.954,20-20,20c-11.046,0-20-8.954-20-20v-41h-31
	c-44.112,0-80-35.888-80-80c0-11.046,8.954-20,20-20s20,8.954,20,20c0,22.056,17.944,40,40,40h89
	c21.953,0,40.501-12.4,48.404-32.363c4.066-10.27,15.689-15.298,25.958-11.233C381.63,371.471,386.659,383.093,382.593,393.363z
	 M230.997,267h66c21.776,0,40.346,12.455,48.461,32.504c3.149,7.78,10.639,12.501,18.546,12.501c2.499,0,5.039-0.472,7.497-1.467
	c10.239-4.145,15.18-15.804,11.035-26.043C368.398,249.568,334.821,227,296.997,227h-66c-29.225,0-53-23.776-53-53v-20
	c0-29.224,23.775-53,53-53h64c22.056,0,40,17.944,40,40c0,11.046,8.954,20,20,20s20-8.954,20-20c0-44.112-35.888-80-80-80h-16V20
	c0-11.046-8.954-20-20-20c-11.046,0-20,8.954-20,20v41h-8c-51.28,0-93,41.72-93,93v20C137.997,225.28,179.717,267,230.997,267z"/>
<g>
</g>
<g>
</g>
<g>
</g>
<g>
</g>
<g>
</g>
<g>
</g>
<g>
</g>
<g>
</g>
<g>
</g>
<g>
</g>
<g>
</g>
<g>
</g>
<g>
</g>
<g>
</g>
<g>
</g>
</svg>
